<svg width="512" height="512" viewBox="0 0 512 512" xmlns="http://www.w3.org/2000/svg">
  <!-- Background circle with gradient -->
  <defs>
    <linearGradient id="bgGradient" x1="0%" y1="0%" x2="100%" y2="100%">
      <stop offset="0%" style="stop-color:#3b82f6;stop-opacity:1" />
      <stop offset="100%" style="stop-color:#1d4ed8;stop-opacity:1" />
    </linearGradient>
    <linearGradient id="iconGradient" x1="0%" y1="0%" x2="100%" y2="100%">
      <stop offset="0%" style="stop-color:#ffffff;stop-opacity:1" />
      <stop offset="100%" style="stop-color:#f1f5f9;stop-opacity:1" />
    </linearGradient>
  </defs>
  
  <!-- Background -->
  <rect width="512" height="512" rx="80" fill="url(#bgGradient)" />
  
  <!-- Main icon - Calendar with people -->
  <g transform="translate(96, 96)">
    <!-- Calendar base -->
    <rect x="32" y="48" width="256" height="224" rx="16" fill="url(#iconGradient)" stroke="#1e40af" stroke-width="4"/>
    
    <!-- Calendar header -->
    <rect x="32" y="48" width="256" height="48" rx="16" fill="#1e40af"/>
    
    <!-- Calendar rings -->
    <circle cx="88" cy="48" r="8" fill="none" stroke="#1e40af" stroke-width="4"/>
    <circle cx="232" cy="48" r="8" fill="none" stroke="#1e40af" stroke-width="4"/>
    
    <!-- Calendar grid -->
    <g stroke="#94a3b8" stroke-width="1" fill="none">
      <line x1="64" y1="128" x2="256" y2="128"/>
      <line x1="64" y1="160" x2="256" y2="160"/>
      <line x1="64" y1="192" x2="256" y2="192"/>
      <line x1="64" y1="224" x2="256" y2="224"/>
      <line x1="96" y1="96" x2="96" y2="272"/>
      <line x1="128" y1="96" x2="128" y2="272"/>
      <line x1="160" y1="96" x2="160" y2="272"/>
      <line x1="192" y1="96" x2="192" y2="272"/>
      <line x1="224" y1="96" x2="224" y2="272"/>
    </g>
    
    <!-- People icons -->
    <g fill="#3b82f6">
      <!-- Person 1 -->
      <circle cx="112" cy="144" r="12"/>
      <ellipse cx="112" cy="172" rx="16" ry="12"/>
      
      <!-- Person 2 -->
      <circle cx="176" cy="144" r="12"/>
      <ellipse cx="176" cy="172" rx="16" ry="12"/>
      
      <!-- Person 3 -->
      <circle cx="240" cy="144" r="12"/>
      <ellipse cx="240" cy="172" rx="16" ry="12"/>
    </g>
    
    <!-- Availability indicators -->
    <g>
      <!-- Available (green) -->
      <circle cx="126" cy="130" r="6" fill="#10b981"/>
      <!-- Busy (orange) -->
      <circle cx="190" cy="130" r="6" fill="#f59e0b"/>
      <!-- Away (red) -->
      <circle cx="254" cy="130" r="6" fill="#ef4444"/>
    </g>
    
    <!-- Analytics chart bars -->
    <g fill="#8b5cf6" opacity="0.7">
      <rect x="80" y="200" width="8" height="32"/>
      <rect x="96" y="190" width="8" height="42"/>
      <rect x="112" y="180" width="8" height="52"/>
      <rect x="128" y="195" width="8" height="37"/>
      <rect x="144" y="175" width="8" height="57"/>
    </g>
  </g>
</svg>